<?xml version="1.0" standalone="no"?>
<!DOCTYPE svg PUBLIC "-//W3C//DTD SVG 20010904//EN"
 "http://www.w3.org/TR/2001/REC-SVG-20010904/DTD/svg10.dtd">
<svg version="1.0" xmlns="http://www.w3.org/2000/svg"
 width="512.000000pt" height="512.000000pt" viewBox="0 0 512.000000 512.000000"
 preserveAspectRatio="xMidYMid meet">
<metadata>
Created by potrace 1.11, written by Peter Selinger 2001-2013
</metadata>
<g transform="translate(0.000000,512.000000) scale(0.100000,-0.100000)"
fill="#000000" stroke="none">
<path d="M1348 4750 l4 -300 -126 0 -126 0 -1 -112 c0 -62 0 -179 1 -260 1
-136 -1 -148 -17 -148 -15 -1 -14 -3 4 -13 l23 -13 -30 -26 c-17 -14 -30 -22
-30 -17 0 6 -6 7 -12 2 -7 -4 -51 -9 -98 -9 -47 -1 -93 -2 -102 -3 -16 -1 -18
-22 -20 -258 l-3 -258 -128 0 c-70 0 -127 -3 -127 -7 0 -3 -9 -4 -19 -1 -19 5
-19 -4 -19 -292 0 -163 -3 -299 -6 -302 -6 -6 -152 -6 -244 0 l-52 3 0 -333
c1 -183 4 -333 8 -334 50 -6 102 -3 102 7 0 6 12 12 26 11 17 0 22 -2 13 -8
-7 -4 -18 -5 -24 -2 -5 4 -7 2 -2 -2 10 -12 107 -14 107 -2 0 5 -7 7 -15 3 -8
-3 -15 -2 -15 3 0 5 20 9 45 9 25 1 43 -3 40 -8 -3 -5 -15 -7 -27 -5 -11 3
-18 1 -14 -3 13 -12 386 -8 386 4 0 6 12 12 26 11 17 0 22 -2 13 -8 -7 -4 -18
-5 -24 -2 -5 4 -7 2 -2 -2 12 -14 107 -13 107 1 0 6 12 12 26 11 17 0 22 -2
13 -8 -7 -4 -18 -5 -24 -2 -5 4 -7 2 -2 -2 10 -12 107 -14 107 -2 0 5 -7 7
-15 3 -8 -3 -15 -2 -15 3 0 5 20 9 45 9 25 1 43 -3 40 -8 -3 -5 -15 -7 -27 -5
-11 3 -18 1 -14 -3 13 -12 386 -8 386 4 0 6 12 12 26 11 17 0 22 -2 13 -8 -7
-4 -18 -5 -24 -2 -5 4 -7 2 -2 -2 12 -14 107 -13 107 1 0 6 12 12 26 12 17 0
22 -3 13 -9 -7 -4 -18 -5 -24 -2 -5 4 -7 2 -2 -2 10 -12 107 -14 107 -2 0 5
-7 7 -15 3 -8 -3 -15 -2 -15 3 0 5 20 9 45 9 25 1 43 -3 40 -8 -3 -5 -15 -7
-27 -5 -11 3 -18 1 -14 -3 4 -4 47 -7 96 -7 73 0 87 2 83 15 -2 8 2 4 10 -10
11 -19 14 -72 13 -232 -1 -114 -4 -209 -6 -212 -3 -3 -72 -6 -154 -7 l-148 -3
4 -28 c3 -15 2 -28 -1 -28 -3 0 -5 -127 -5 -282 l2 -283 -105 0 c-80 0 -108 4
-117 15 -6 8 -24 15 -41 15 l-30 1 4 -298 3 -298 -126 0 c-124 0 -126 0 -127
-22 0 -13 0 -79 0 -148 1 -113 3 -127 22 -142 16 -14 18 -21 10 -37 -6 -11
-11 -22 -11 -25 0 -11 55 -5 71 7 22 17 138 15 149 -3 4 -7 15 -10 25 -7 9 4
13 12 9 18 -4 8 -3 9 5 5 6 -4 9 -11 6 -16 -3 -4 3 -7 12 -6 14 2 18 12 17 39
-1 21 2 37 5 37 3 0 5 21 2 48 -2 26 0 43 5 39 4 -4 8 -24 8 -44 1 -20 6 -38
13 -40 9 -3 13 25 16 109 l3 113 2 -112 c1 -65 6 -113 12 -113 5 0 11 48 12
112 l3 112 108 0 107 0 1 45 c0 25 1 95 1 155 l1 109 148 -5 149 -6 0 149 0
149 133 1 c72 1 140 2 150 2 15 0 17 13 17 147 l0 147 143 1 c78 0 145 1 148
1 3 1 6 56 6 124 1 67 1 134 2 148 l1 26 140 -2 c78 0 144 2 148 5 5 3 8 52 8
110 l-1 105 90 6 c78 4 87 7 46 13 -5 0 -13 5 -18 10 -4 5 4 7 20 4 16 -3 27
-1 27 6 0 8 2 8 8 0 11 -16 43 -27 90 -29 32 -2 40 0 32 10 -5 6 -7 15 -3 18
3 4 1 7 -5 7 -7 0 -12 -5 -12 -11 0 -6 -7 -8 -16 -5 -9 4 -23 1 -30 -5 -8 -6
-14 -9 -14 -6 0 4 16 17 35 30 23 16 31 26 23 29 -10 4 -13 34 -13 114 0 106
1 109 23 108 12 -1 22 4 22 11 0 7 12 13 26 13 17 0 22 -3 13 -9 -7 -4 -18 -5
-24 -2 -5 4 -7 2 -2 -2 10 -12 107 -14 107 -2 0 5 -7 7 -15 3 -8 -3 -15 -1
-15 4 0 5 11 9 24 8 14 -1 23 -5 20 -9 -5 -9 49 -17 68 -10 11 5 14 34 13 144
0 82 4 142 10 146 6 4 72 7 148 7 l137 -1 1 30 c1 16 1 83 1 148 l0 117 42 1
c22 0 89 0 149 0 l107 -1 0 150 0 150 133 2 c72 0 139 1 148 0 15 -1 16 14 11
148 l-5 150 84 -1 c46 0 116 0 155 0 l71 1 0 188 c0 103 -4 176 -8 162 -6 -20
-7 -21 -8 -5 -1 20 -7 20 -439 17 l-438 -3 0 78 1 78 145 5 c119 4 145 8 146
20 1 8 2 74 3 145 l1 131 45 -1 c60 0 58 13 -2 18 -27 2 6 4 72 4 66 1 114 -1
108 -4 -7 -2 -13 -8 -13 -12 0 -9 68 -6 78 4 4 3 5 70 4 148 l-4 143 154 -1
153 0 3 29 c2 18 0 26 -7 21 -7 -3 -11 -3 -10 2 1 4 -1 15 -5 24 -4 8 -5 62
-3 120 l3 104 2 -112 c1 -64 6 -113 12 -113 5 0 9 44 8 105 -1 58 2 108 5 112
4 3 54 6 112 6 58 0 105 4 105 9 0 5 9 4 19 -2 11 -5 28 -10 39 -10 17 0 20 7
19 40 -1 22 -4 40 -7 40 -7 0 -2 180 6 252 l6 48 -1788 0 -1789 0 3 -300z
m3418 273 c-9 -9 -3267 -10 -3273 0 -2 4 735 7 1638 7 903 0 1639 -3 1635 -7z
m111 -12 c0 -11 -5 -18 -9 -15 -4 3 -5 11 -1 19 7 21 12 19 10 -4z m-3516 -14
c-10 -9 -11 -8 -5 6 3 10 9 15 12 12 3 -3 0 -11 -7 -18z m3544 3 c3 -5 1 -10
-4 -10 -6 0 -11 5 -11 10 0 6 2 10 4 10 3 0 8 -4 11 -10z m-3515 -284 c0 -159
-4 -257 -10 -261 -7 -4 -10 83 -10 254 0 167 4 261 10 261 6 0 10 -91 10 -254z
m3498 144 c0 -62 -3 -110 -9 -110 -5 0 -9 49 -9 110 0 61 4 110 9 110 4 0 9
-49 9 -110z m-883 -1030 c-3 -5 -12 -10 -18 -10 -7 0 -6 4 3 10 19 12 23 12
15 0z m-55 -12 c0 -8 -11 -9 -110 -9 -115 0 -126 1 -111 10 17 11 221 9 221
-1z m587 -233 c-4 -10 -792 -16 -811 -6 -26 13 55 16 419 16 259 0 394 -3 392
-10z m60 -217 c-2 -24 -4 -7 -4 37 0 44 2 63 4 43 2 -21 2 -57 0 -80z m-3907
-67 c0 -9 -78 -12 -84 -3 -2 4 15 8 40 8 24 1 44 -2 44 -5z m125 -3 c4 -3 -21
-6 -54 -5 -34 1 -61 4 -61 8 0 8 107 6 115 -3z m2865 -908 c0 -5 -2 -10 -4
-10 -3 0 -8 5 -11 10 -3 6 -1 10 4 10 6 0 11 -4 11 -10z m-3423 -302 c-3 -8
-6 -5 -6 6 -1 11 2 17 5 13 3 -3 4 -12 1 -19z m1713 2 c0 -5 -2 -10 -4 -10 -3
0 -8 5 -11 10 -3 6 -1 10 4 10 6 0 11 -4 11 -10z m-1650 -10 c0 -5 -2 -10 -4
-10 -3 0 -8 5 -11 10 -3 6 -1 10 4 10 6 0 11 -4 11 -10z m90 0 c0 -5 -2 -10
-4 -10 -3 0 -8 5 -11 10 -3 6 -1 10 4 10 6 0 11 -4 11 -10z m215 1 c-8 -8
-105 -8 -105 0 0 4 25 7 55 7 31 0 53 -3 50 -7z m45 5 c0 -11 -19 -15 -25 -6
-3 5 1 10 9 10 9 0 16 -2 16 -4z m115 -5 c-8 -8 -105 -8 -105 0 0 4 25 7 55 7
31 0 53 -3 50 -7z m55 5 c0 -3 -4 -8 -10 -11 -5 -3 -10 -1 -10 4 0 6 5 11 10
11 6 0 10 -2 10 -4z m90 -6 c0 -5 -2 -10 -4 -10 -3 0 -8 5 -11 10 -3 6 -1 10
4 10 6 0 11 -4 11 -10z m30 6 c0 -3 -4 -8 -10 -11 -5 -3 -10 -1 -10 4 0 6 5
11 10 11 6 0 10 -2 10 -4z m90 -6 c0 -5 -2 -10 -4 -10 -3 0 -8 5 -11 10 -3 6
-1 10 4 10 6 0 11 -4 11 -10z m215 1 c-8 -8 -105 -8 -105 0 0 4 25 7 55 7 31
0 53 -3 50 -7z m45 5 c0 -11 -19 -15 -25 -6 -3 5 1 10 9 10 9 0 16 -2 16 -4z
m115 -5 c-8 -8 -105 -8 -105 0 0 4 25 7 55 7 31 0 53 -3 50 -7z m55 5 c0 -3
-4 -8 -10 -11 -5 -3 -10 -1 -10 4 0 6 5 11 10 11 6 0 10 -2 10 -4z m90 -6 c0
-5 -2 -10 -4 -10 -3 0 -8 5 -11 10 -3 6 -1 10 4 10 6 0 11 -4 11 -10z m30 6
c0 -3 -4 -8 -10 -11 -5 -3 -10 -1 -10 4 0 6 5 11 10 11 6 0 10 -2 10 -4z m90
-6 c0 -5 -2 -10 -4 -10 -3 0 -8 5 -11 10 -3 6 -1 10 4 10 6 0 11 -4 11 -10z
m215 1 c-8 -8 -105 -8 -105 0 0 4 25 7 55 7 31 0 53 -3 50 -7z m1385 -1 c0 -5
-2 -10 -4 -10 -3 0 -8 5 -11 10 -3 6 -1 10 4 10 6 0 11 -4 11 -10z m-423 -275
c0 -8 -4 -12 -9 -9 -4 3 -8 9 -8 15 0 5 4 9 8 9 5 0 9 -7 9 -15z m143 -12 c0
-5 -22 -8 -50 -8 -27 0 -50 3 -50 8 0 4 23 7 50 7 28 0 50 -3 50 -7z m-140
-99 c0 -41 -3 -73 -7 -71 -5 3 -7 25 -6 49 0 23 2 55 2 71 1 15 3 27 6 27 3 0
5 -34 5 -76z m-942 -99 c3 -3 -46 -5 -109 -4 -63 1 -104 4 -91 7 27 8 192 6
200 -3z m-245 -109 c8 5 8 3 0 -7 -10 -9 -13 -71 -13 -236 0 -123 -3 -223 -7
-223 -5 0 -8 101 -8 225 0 124 4 225 8 225 4 0 4 8 0 18 -5 9 -8 24 -7 32 4
40 8 41 11 2 3 -29 8 -40 16 -36z m-291 -783 c-2 -165 -7 -273 -12 -273 -6 0
-10 102 -10 260 0 167 4 260 10 260 6 0 10 7 10 15 0 8 -5 15 -11 15 -5 0 -7
5 -3 11 16 26 19 -28 16 -288z m245 -326 c3 -4 -29 -7 -73 -8 -43 0 -89 -2
-102 -3 -27 -3 -16 10 12 16 32 5 156 1 163 -5z m-201 -57 c0 -16 -3 -30 -8
-30 -4 0 -8 14 -8 30 0 17 4 30 8 30 5 0 8 -13 8 -30z m-1 -70 c1 -11 -2 -20
-7 -20 -4 0 -8 12 -8 27 0 30 13 24 15 -7z"/>
<path d="M4120 4082 c0 -9 87 -8 96 0 3 3 -17 6 -45 6 -28 1 -51 -2 -51 -6z"/>
<path d="M1047 3903 c-4 -3 -7 -11 -7 -17 0 -6 5 -5 12 2 6 6 9 14 7 17 -3 3
-9 2 -12 -2z"/>
<path d="M1070 3900 c0 -5 5 -10 10 -10 6 0 10 5 10 10 0 6 -4 10 -10 10 -5 0
-10 -4 -10 -10z"/>
</g>
</svg>
